<?xml version="1.0" encoding="UTF-8"?>
<svg width="389px" height="56px" viewBox="0 0 389 56" version="1.1" xmlns="http://www.w3.org/2000/svg" xmlns:xlink="http://www.w3.org/1999/xlink">
    <title>Cobo Prompts</title>
    <g id="定稿" stroke="none" stroke-width="1" fill="none" fill-rule="evenodd">
        <g id="cobo-logo-图形" transform="translate(-201, -1564)">
            <g id="编组-2" transform="translate(24, 24)">
                <g id="Cobo-Prompts" transform="translate(177, 1540)">
                    <path d="M86.4809181,33.3247926 C86.4849697,43.2354476 79.4300596,51.7466415 69.6867443,53.5896365 C59.9403891,55.4316189 50.2619279,50.0849081 46.6432718,40.8567688 L54.5068314,32.9987242 L54.5068314,33.3247926 C54.4987247,38.7434004 58.3251166,43.411646 63.6411262,44.4749123 C68.9591624,45.537166 74.2873321,42.6967259 76.3657034,37.6922857 C78.4440746,32.6878454 76.6930139,26.9117775 72.1846406,23.9012148 C67.6752539,20.8886269 61.6671295,21.4800055 57.8326308,25.3128275 L35.22287,47.8885036 C29.3241869,53.7871002 20.4493086,55.553135 12.738764,52.363336 C5.02720614,49.1715117 0,41.6537123 0,33.3156789 C0,24.9766328 5.02720614,17.4588334 12.738764,14.2680217 C20.4493086,11.0782227 29.3241869,12.8432448 35.22287,18.7428541 C36.3902438,19.9205482 36.8421958,21.6298754 36.4044306,23.2288254 C35.9686922,24.8287881 34.7111306,26.0743287 33.1080183,26.4945721 C31.5028793,26.9168407 29.7953925,26.4520414 28.6280187,25.2743474 C24.1946329,20.8592604 17.0191347,20.8693868 12.5968957,25.2956127 C8.17263001,29.720826 8.17263001,36.8912917 12.5968957,41.3154923 C17.0191347,45.7427309 24.1946329,45.7518446 28.6280187,41.3367576 L51.2195392,18.7428541 C57.120249,12.8422322 65.997154,11.0761974 73.7087119,14.2690344 C81.4202698,17.4608587 86.4464626,24.9827086 86.4424092,33.3247926 L86.4809181,33.3247926 Z M175.999921,33.3247926 C176.027202,43.2546876 168.967225,51.7942353 159.204657,53.6392556 C149.439048,55.4832632 139.7464,50.1122492 136.143957,40.8567688 L144.007517,32.9987242 L144.007517,33.3247926 C144.016637,38.7241603 147.841002,43.3640521 153.139785,44.4070658 C158.440594,45.4521047 163.741404,42.610652 165.800521,37.6214012 C167.860652,32.6291126 166.106552,26.8803859 161.611352,23.8880506 C157.114125,20.8947027 151.129308,21.4911444 147.314063,25.3128275 L124.81881,47.8115434 C118.937354,53.7546959 110.049302,55.5622487 102.31241,52.3866266 C94.5755188,49.2120171 89.522979,41.6830787 89.5189256,33.3247926 L89.5189256,4.35129094 C89.6759941,1.90375308 91.7087649,0 94.1620739,0 C96.6153829,0 98.6481536,1.90375308 98.8052221,4.35129094 L98.8052221,16.090764 C104.513396,12.3308517 111.716255,11.6432728 118.034463,14.2578954 C124.350644,16.8704927 128.958325,22.4440336 130.336475,29.1365358 L140.758732,18.723614 C146.660455,12.8361564 155.52824,11.080248 163.231691,14.2690344 C170.934129,17.4608587 175.958295,24.9725823 175.962348,33.3055525 L175.999921,33.3247926 Z M121.512264,33.3247926 C121.512264,28.7385704 118.744818,24.6039833 114.505995,22.8501001 C110.264131,21.0982422 105.382847,22.0703714 102.141155,25.316878 C98.8974366,28.562372 97.9327318,33.4402329 99.693926,37.6770961 C101.45512,41.9109215 105.598689,44.6683255 110.18813,44.6602423 C116.445537,44.6490855 121.512264,39.578824 121.512264,33.3247926 L121.512264,33.3247926 Z" id="Fill-1" fill="#1F32D6"></path>
                    <g id="Prompts" transform="translate(196, 13)" fill="#6B6B6B" fill-rule="nonzero">
                        <path d="M0,35.01566 L3.36404382,35.01566 L3.36404382,22.3657718 L12.2547311,22.3657718 C19.6556275,22.3657718 25.999253,18.4697987 25.999253,11.0145414 L25.999253,10.9183445 C25.999253,4.08836689 20.7128984,0 12.9275398,0 L0,0 L0,35.01566 Z M3.36404382,19.287472 L3.36404382,3.07829978 L12.687251,3.07829978 C18.5983566,3.07829978 22.6352092,5.81991051 22.6352092,11.0626398 L22.6352092,11.1588367 C22.6352092,16.0167785 18.5502988,19.287472 12.4469622,19.287472 L3.36404382,19.287472 Z M31.3016268,35.01566 L34.5214973,35.01566 L34.5214973,24.6263982 C34.5214973,16.6420582 39.375332,12.3612975 45.1422643,12.3612975 L45.3825531,12.3612975 L45.3825531,8.89821029 C40.4326029,8.70581655 36.4438081,11.8803132 34.5214973,16.3053691 L34.5214973,9.3310962 L31.3016268,9.3310962 L31.3016268,35.01566 Z M60.3445385,35.5928412 C68.0337815,35.5928412 73.7045983,29.3881432 73.7045983,22.1733781 L73.7045983,22.0771812 C73.7045983,14.8143177 68.0818393,8.70581655 60.4406541,8.70581655 C52.7033533,8.70581655 47.0805943,14.9105145 47.0805943,22.1733781 L47.0805943,22.2695749 C47.0805943,29.48434 52.6552955,35.5928412 60.3445385,35.5928412 Z M60.4406541,32.6588367 C54.7698373,32.6588367 50.4446381,27.9932886 50.4446381,22.1733781 L50.4446381,22.0771812 C50.4446381,16.3534676 54.5295485,11.639821 60.3445385,11.639821 C65.9672975,11.639821 70.2924967,16.3534676 70.2924967,22.1733781 L70.2924967,22.2695749 C70.2924967,27.9451902 66.2075863,32.6588367 60.4406541,32.6588367 Z M79.3914343,35.01566 L82.6113048,35.01566 L82.6113048,20.2494407 C82.6113048,15.3434004 85.9272908,11.6879195 90.2044323,11.6879195 C94.5296315,11.6879195 97.2208665,14.7181208 97.2208665,19.7684564 L97.2208665,35.01566 L100.440737,35.01566 L100.440737,20.1532438 C100.440737,14.7662192 103.900896,11.6879195 107.985807,11.6879195 C112.407122,11.6879195 115.050299,14.6700224 115.050299,19.9127517 L115.050299,35.01566 L118.270169,35.01566 L118.270169,19.2393736 C118.270169,12.8422819 114.569721,8.70581655 108.5625,8.70581655 C103.948954,8.70581655 101.209661,11.2069351 99.4315239,14.0447427 C98.0378486,11.1107383 95.2985558,8.70581655 91.0214143,8.70581655 C86.5520418,8.70581655 84.2452689,11.1588367 82.6113048,13.7561521 L82.6113048,9.3310962 L79.3914343,9.3310962 L79.3914343,35.01566 Z M138.27822,32.6107383 C133.232155,32.6107383 128.474436,28.4261745 128.474436,22.2214765 L128.474436,22.1252796 C128.474436,15.9205817 133.232155,11.6879195 138.27822,11.6879195 C143.372344,11.6879195 147.745601,15.7762864 147.745601,22.1733781 L147.745601,22.2695749 C147.745601,28.7628635 143.516517,32.6107383 138.27822,32.6107383 Z M125.398738,43 L128.618609,43 L128.618609,29.8210291 C130.685093,32.8512304 133.856906,35.5928412 138.806856,35.5928412 C144.95825,35.5928412 151.157703,30.590604 151.157703,22.1733781 L151.157703,22.0771812 C151.157703,13.6599553 144.95825,8.70581655 138.806856,8.70581655 C133.904963,8.70581655 130.781208,11.4955257 128.618609,14.7181208 L128.618609,9.3310962 L125.398738,9.3310962 L125.398738,43 Z M165.542995,35.4485459 C167.321132,35.4485459 168.618692,35.1118568 169.964309,34.4865772 L169.964309,31.6006711 C168.570634,32.2259508 167.513363,32.5145414 166.215803,32.5145414 C163.476511,32.5145414 161.5542,31.2639821 161.5542,27.8970917 L161.5542,12.2170022 L170.108483,12.2170022 L170.108483,9.3310962 L161.5542,9.3310962 L161.5542,1.34675615 L158.334329,1.34675615 L158.334329,9.3310962 L154.681939,9.3310962 L154.681939,12.2170022 L158.334329,12.2170022 L158.334329,28.2818792 C158.334329,33.3803132 161.506142,35.4485459 165.542995,35.4485459 Z M183.965139,35.4966443 C189.011205,35.4966443 193,32.6588367 193,27.8970917 L193,27.8008949 C193,23.2315436 188.674801,21.6923937 184.637948,20.4899329 C181.081673,19.4798658 177.765687,18.4697987 177.765687,15.8243848 L177.765687,15.7281879 C177.765687,13.3713647 179.880229,11.639821 183.148157,11.639821 C185.695219,11.639821 188.48257,12.6498881 190.885458,14.189038 L192.423307,11.6879195 C189.828187,9.9082774 186.31997,8.80201342 183.244273,8.80201342 C178.198207,8.80201342 174.641932,11.7841163 174.641932,16.1129754 L174.641932,16.2091723 C174.641932,20.8266219 179.159363,22.1733781 183.244273,23.3758389 C186.704432,24.3378076 189.828187,25.3478747 189.828187,28.1375839 L189.828187,28.2337808 C189.828187,30.9272931 187.377241,32.6588367 184.109313,32.6588367 C180.985558,32.6588367 177.909861,31.5044743 175.074452,29.3400447 L173.344373,31.7449664 C176.179781,34.0536913 180.264691,35.4966443 183.965139,35.4966443 Z" id="形状结合"></path>
                    </g>
                </g>
            </g>
        </g>
    </g>
</svg>